# This file uses centimeters as units for non-parametric coordinates.

mtllib sponza_floor.mtl
g default
v -32.271553 20.776514 -65.111046
v -32.271553 20.776514 -45.008568
v -15.088161 20.776514 -45.008568
v -15.088161 20.776514 -65.111046
v -15.088161 20.776514 51.508739
v -32.271553 20.776514 51.508739
v -32.271553 20.776514 71.611221
v -15.088161 20.776514 71.611221
v 11.525870 20.776514 51.508739
v 11.525870 20.776514 71.611221
v 11.525870 20.776514 -45.008568
v 28.709259 20.776514 -45.008568
v 28.709259 20.776514 -65.111046
v 11.525870 20.776514 -65.111046
v 28.709259 20.776514 71.611221
v 28.709259 20.776514 51.508739
vt 6.718900 3.185200
vt 5.731000 3.185200
vt 6.718900 2.327400
vt 5.731000 2.327400
vt 0.987900 2.327400
vt 0.987900 3.185200
vt 0.000000 2.327400
vt 0.000000 3.185200
vt 0.987900 1.017300
vt 0.000000 1.017300
vt 5.731000 1.017300
vt 5.731000 0.140900
vt 6.718900 1.017300
vt 6.718900 0.140900
vt 0.000000 0.140900
vt 0.987900 0.140900
vn 0.000000 1.000000 0.000000
vn 0.000000 1.000000 0.000000
vn 0.000000 1.000000 0.000000
vn 0.000000 1.000000 0.000000
vn 0.000000 1.000000 0.000000
vn 0.000000 1.000000 0.000000
vn 0.000000 1.000000 0.000000
vn 0.000000 1.000000 0.000000
vn 0.000000 1.000000 0.000000
vn 0.000000 1.000000 0.000000
vn 0.000000 1.000000 0.000000
vn 0.000000 1.000000 0.000000
vn 0.000000 1.000000 0.000000
vn 0.000000 1.000000 0.000000
vn 0.000000 1.000000 0.000000
vn 0.000000 1.000000 0.000000
vn 0.000000 1.000000 0.000000
vn 0.000000 1.000000 0.000000
vn 0.000000 1.000000 0.000000
vn 0.000000 1.000000 0.000000
vn 0.000000 1.000000 0.000000
vn 0.000000 1.000000 0.000000
vn 0.000000 1.000000 0.000000
vn 0.000000 1.000000 0.000000
vn 0.000000 1.000000 0.000000
vn 0.000000 1.000000 0.000000
vn 0.000000 1.000000 0.000000
vn 0.000000 1.000000 0.000000
vn 0.000000 1.000000 0.000000
vn 0.000000 1.000000 0.000000
vn 0.000000 1.000000 0.000000
vn 0.000000 1.000000 0.000000
vn 0.000000 1.000000 0.000000
vn 0.000000 1.000000 0.000000
vn 0.000000 1.000000 0.000000
vn 0.000000 1.000000 0.000000
vn 0.000000 1.000000 0.000000
vn 0.000000 1.000000 0.000000
vn 0.000000 1.000000 0.000000
vn 0.000000 1.000000 0.000000
vn 0.000000 1.000000 0.000000
vn 0.000000 1.000000 0.000000
vn 0.000000 1.000000 0.000000
vn 0.000000 1.000000 0.000000
vn 0.000000 1.000000 0.000000
vn 0.000000 1.000000 0.000000
vn 0.000000 1.000000 0.000000
vn 0.000000 1.000000 0.000000
s off
g sponza_floor:sponza_18
usemtl initialShadingGroup
f 1/1/1 2/2/2 4/3/3
f 4/3/4 2/2/5 3/4/6
f 5/5/7 6/6/8 8/7/9
f 8/7/10 6/6/11 7/8/12
f 9/9/13 5/5/14 10/10/15
f 10/10/16 5/5/17 8/7/18
f 2/2/19 6/6/20 3/4/21
f 3/4/22 6/6/23 5/5/24
f 11/11/25 12/12/26 14/13/27
f 14/13/28 12/12/29 13/14/30
f 3/4/31 11/11/32 4/3/33
f 4/3/34 11/11/35 14/13/36
f 15/15/37 16/16/38 10/10/39
f 10/10/40 16/16/41 9/9/42
f 16/16/43 12/12/44 9/9/45
f 9/9/46 12/12/47 11/11/48
g default
v 28.701473 -0.125310 -6.480735
v 28.701487 -0.125310 -65.109528
v -32.168083 -0.125310 -65.109528
v 28.701471 -0.125310 12.717835
v 28.701466 -0.125310 71.425987
v -32.191822 -0.125310 3.167100
v -32.215569 -0.125310 71.425987
vt 4.099200 5.952500
vt 2.621700 5.952500
vt -1.890500 1.267900
vt -1.890500 5.952500
vt 8.617500 5.952500
vt 3.364200 1.266100
vt 8.617500 1.264200
vn 0.000000 1.000000 0.000000
vn 0.000000 1.000000 0.000000
vn 0.000000 1.000000 0.000000
vn 0.000000 1.000000 0.000000
vn 0.000000 1.000000 0.000000
vn 0.000000 1.000000 0.000000
vn 0.000000 1.000000 0.000000
vn 0.000000 1.000000 0.000000
vn 0.000000 1.000000 0.000000
vn 0.000000 1.000000 0.000000
vn 0.000000 1.000000 0.000000
vn 0.000000 1.000000 0.000000
vn 0.000000 1.000000 0.000000
vn 0.000000 1.000000 0.000000
vn 0.000000 1.000000 0.000000
s off
g sponza_floor:sponza_117
usemtl initialShadingGroup
f 20/17/49 17/18/50 19/19/51
f 17/18/52 18/20/53 19/19/54
f 21/21/55 20/17/56 22/22/57
f 22/22/58 20/17/59 19/19/60
f 23/23/61 21/21/62 22/22/63
