# This file uses centimeters as units for non-parametric coordinates.

mtllib sponza_chain1.mtl
g default
v -10.895690 6.717010 29.748239
v -10.895690 10.684865 30.953616
v -11.074360 10.675705 30.983759
v -11.074360 6.707850 29.778381
vt 0.677000 0.000000
vt 0.677000 3.098200
vt 0.146700 3.098200
vt 0.146700 0.000000
vn 0.173643 -0.286252 0.942289
vn 0.173644 -0.286256 0.942287
vn 0.173643 -0.286252 0.942289
vn 0.173644 -0.286256 0.942287
s 1
g sponza:sponza_339
usemtl sponza:chain
f 1/1/1 2/2/2 4/4/3
f 4/4/3 2/2/2 3/3/4
g default
v -10.985025 6.687565 32.072760
v -10.985025 10.665995 30.888199
v -10.985025 10.717745 31.062091
v -10.985025 6.739315 32.246655
vt 0.677000 0.000000
vt 0.678900 3.101300
vt 0.148500 3.103300
vt 0.146700 0.000000
vn 1.000000 0.000000 0.000001
vn 1.000000 0.000000 0.000000
vn 1.000000 0.000000 0.000001
vn 1.000000 0.000000 0.000000
s 1
g sponza:sponza_340
usemtl sponza:chain
f 5/5/5 6/6/6 8/8/7
f 8/8/7 6/6/6 7/7/8
g default
v -10.985025 6.738800 29.676514
v -10.985025 10.706650 30.881891
v -10.985025 10.653915 31.055484
v -10.985025 6.686065 29.850110
vt 0.677000 0.000000
vt 0.677000 3.098200
vt 0.146700 3.098200
vt 0.146700 0.000000
vn 1.000000 0.000000 0.000000
vn 1.000000 0.000000 0.000000
vn 1.000000 0.000000 0.000000
vn 1.000000 0.000000 0.000000
s 1
g sponza:sponza_341
usemtl sponza:chain
f 9/9/9 10/10/10 12/12/11
f 12/12/11 10/10/10 11/11/12
g default
v 7.077750 6.717010 32.172174
v 7.077750 10.684865 30.966806
v 7.256420 10.675705 30.936661
v 7.256420 6.707850 32.142029
vt 0.677000 0.000000
vt 0.677000 3.098200
vt 0.146700 3.098200
vt 0.146700 0.000000
vn -0.173653 -0.286249 -0.942288
vn -0.173660 -0.286252 -0.942286
vn -0.173653 -0.286249 -0.942288
vn -0.173660 -0.286252 -0.942286
s 1
g sponza:sponza_348
usemtl sponza:chain
f 13/13/13 14/14/14 16/16/15
f 16/16/15 14/14/14 15/15/16
g default
v 7.167085 6.687565 29.847656
v 7.167085 10.665995 31.032214
v 7.167085 10.717745 30.858325
v 7.167085 6.739315 29.673764
vt 0.677000 0.000000
vt 0.678900 3.101300
vt 0.148500 3.103300
vt 0.146700 0.000000
vn -1.000000 0.000000 0.000001
vn -1.000000 0.000000 0.000000
vn -1.000000 0.000000 0.000001
vn -1.000000 0.000000 -0.000000
s 1
g sponza:sponza_349
usemtl sponza:chain
f 17/17/17 18/18/18 20/20/19
f 20/20/19 18/18/18 19/19/20
g default
v -11.074360 6.720575 32.170044
v -11.074360 10.675160 30.908154
v -10.895690 10.684735 30.938171
v -10.895690 6.730150 32.200055
vt 0.677000 0.000000
vt 0.677400 3.101200
vt 0.147100 3.101200
vt 0.146700 0.000000
vn 0.173631 -0.299377 -0.938204
vn 0.173663 -0.299370 -0.938200
vn 0.173632 -0.299377 -0.938203
vn 0.173663 -0.299370 -0.938200
s 1
g sponza:sponza_342
usemtl sponza:chain
f 21/21/21 22/22/22 24/24/23
f 24/24/23 22/22/22 23/23/24
g default
v -10.895690 6.717010 -25.593565
v -10.895690 10.684865 -24.388190
v -11.074360 10.675705 -24.358044
v -11.074360 6.707850 -25.563420
vt 0.677000 0.000000
vt 0.677000 3.098200
vt 0.146700 3.098200
vt 0.146700 0.000000
vn 0.173657 -0.286253 0.942286
vn 0.173660 -0.286253 0.942285
vn 0.173657 -0.286253 0.942286
vn 0.173660 -0.286253 0.942285
s 1
g sponza:sponza_330
usemtl sponza:chain
f 25/25/25 26/26/26 28/28/27
f 28/28/27 26/26/26 27/27/28
g default
v -10.985025 6.687565 -23.269040
v -10.985025 10.665995 -24.453600
v -10.985025 10.717745 -24.279710
v -10.985025 6.739315 -23.095151
vt 0.677000 0.000000
vt 0.678900 3.101300
vt 0.148500 3.103300
vt 0.146700 0.000000
vn 1.000000 0.000000 0.000001
vn 1.000000 0.000000 0.000000
vn 1.000000 0.000000 0.000001
vn 1.000000 0.000000 0.000000
s 1
g sponza:sponza_331
usemtl sponza:chain
f 29/29/29 30/30/30 32/32/31
f 32/32/31 30/30/30 31/31/32
g default
v -10.985025 6.738800 -25.665286
v -10.985025 10.706650 -24.459911
v -10.985025 10.653915 -24.286320
v -10.985025 6.686065 -25.491695
vt 0.677000 0.000000
vt 0.677000 3.098200
vt 0.146700 3.098200
vt 0.146700 0.000000
vn 1.000000 0.000000 0.000000
vn 1.000000 0.000000 0.000000
vn 1.000000 0.000000 0.000000
vn 1.000000 0.000000 0.000000
s 1
g sponza:sponza_332
usemtl sponza:chain
f 33/33/33 34/34/34 36/36/35
f 36/36/35 34/34/34 35/35/36
g default
v -11.074360 6.720575 -23.171761
v -11.074360 10.675160 -24.433646
v -10.895690 10.684735 -24.403630
v -10.895690 6.730150 -23.141750
vt 0.677000 0.000000
vt 0.677400 3.101200
vt 0.147100 3.101200
vt 0.146700 0.000000
vn 0.173634 -0.299376 -0.938203
vn 0.173654 -0.299369 -0.938202
vn 0.173634 -0.299376 -0.938203
vn 0.173654 -0.299369 -0.938202
s 1
g sponza:sponza_333
usemtl sponza:chain
f 37/37/37 38/38/38 40/40/39
f 40/40/39 38/38/38 39/39/40
g default
v 7.077740 6.717010 -23.169630
v 7.077745 10.684865 -24.375000
v 7.256415 10.675705 -24.405145
v 7.256415 6.707850 -23.199770
vt 0.677000 0.000000
vt 0.677000 3.098200
vt 0.146700 3.098200
vt 0.146700 0.000000
vn -0.173618 -0.286252 -0.942293
vn -0.173659 -0.286253 -0.942286
vn -0.173619 -0.286252 -0.942293
vn -0.173660 -0.286253 -0.942285
s 1
g sponza:sponza_357
usemtl sponza:chain
f 41/41/41 42/42/42 44/44/43
f 44/44/43 42/42/42 43/43/44
g default
v 7.167080 6.687565 -25.494145
v 7.167080 10.665995 -24.309590
v 7.167080 10.717745 -24.483479
v 7.167080 6.739315 -25.668039
vt 0.677000 0.000000
vt 0.678900 3.101300
vt 0.148500 3.103300
vt 0.146700 0.000000
vn -1.000000 0.000000 0.000002
vn -1.000000 0.000000 0.000000
vn -1.000000 0.000000 0.000002
vn -1.000000 0.000000 -0.000000
s 1
g sponza:sponza_358
usemtl sponza:chain
f 45/45/45 46/46/46 48/48/47
f 48/48/47 46/46/46 47/47/48
g default
v 7.167080 6.738800 -23.097900
v 7.167080 10.706650 -24.303281
v 7.167080 10.653915 -24.476875
v 7.167080 6.686065 -23.271495
vt 0.677000 0.000000
vt 0.677000 3.098200
vt 0.146700 3.098200
vt 0.146700 0.000000
vn -1.000000 0.000000 0.000001
vn -1.000000 0.000000 0.000000
vn -1.000000 0.000000 0.000001
vn -1.000000 0.000000 -0.000000
s 1
g sponza:sponza_359
usemtl sponza:chain
f 49/49/49 50/50/50 52/52/51
f 52/52/51 50/50/50 51/51/52
g default
v 7.167085 6.738800 32.243906
v 7.167090 10.706650 31.038525
v 7.167090 10.653915 30.864929
v 7.167085 6.686065 32.070306
vt 0.677000 0.000000
vt 0.677000 3.098200
vt 0.146700 3.098200
vt 0.146700 0.000000
vn -1.000000 0.000001 0.000002
vn -1.000000 0.000001 0.000000
vn -1.000000 0.000001 0.000002
vn -1.000000 0.000001 -0.000000
s 1
g sponza:sponza_350
usemtl sponza:chain
f 53/53/53 54/54/54 56/56/55
f 56/56/55 54/54/54 55/55/56
g default
v 7.256420 6.720575 29.750375
v 7.256420 10.675160 31.012259
v 7.077750 10.684735 30.982245
v 7.077750 6.730150 29.720361
vt 0.677000 0.000000
vt 0.677400 3.101200
vt 0.147100 3.101200
vt 0.146700 0.000000
vn -0.173650 -0.299374 0.938201
vn -0.173646 -0.299376 0.938201
vn -0.173650 -0.299374 0.938201
vn -0.173645 -0.299376 0.938201
s 1
g sponza:sponza_351
usemtl sponza:chain
f 57/57/57 58/58/58 60/60/59
f 60/60/59 58/58/58 59/59/60
g default
v 7.256415 6.720575 -25.591431
v 7.256415 10.675160 -24.329539
v 7.077745 10.684735 -24.359560
v 7.077740 6.730150 -25.621439
vt 0.677000 0.000000
vt 0.677400 3.101200
vt 0.147100 3.101200
vt 0.146700 0.000000
vn -0.173613 -0.299379 0.938206
vn -0.173674 -0.299368 0.938198
vn -0.173615 -0.299379 0.938206
vn -0.173676 -0.299368 0.938198
s 1
g sponza:sponza_360
usemtl sponza:chain
f 61/61/61 62/62/62 64/64/63
f 64/64/63 62/62/62 63/63/64
